# xmcd CD database file generated by freedbAccess_ocx
#
# Track frame offsets:
#       150
#       30164
#       39326
#       51059
#       64916
#       80752
#       94421
#       107240
#       124016
#       140330
#       152131
#       168940
#       182359
#       195856
#       211737
#       221781
#
# Disc length: 3136 seconds
#
# Revision: 0
# Processed by: cddbd v1.5.2PL0 Copyright (c) Steve Scherf et al.
# Submitted via: CDnGo 2.09
#
DISCID=d30c3e10
DTITLE=Billie Holiday - Stormy Weather (4 Disc Set), Disc 1
DYEAR=2000
DGENRE=Blues
TTITLE0=Be Fair With My Baby
TTITLE1=Rocky Mountain Blues
TTITLE2=Detour Ahead
TTITLE3=Trav'lin Light
TTITLE4=Blue Moon
TTITLE5=Easy To Love
TTITLE6=Yesterdays
TTITLE7=Autumn In New York
TTITLE8=Lover Come Back To Me
TTITLE9=Remember
TTITLE10=Stormy Weather
TTITLE11=Love For Sale
TTITLE12=How Deep Is The Ocean?
TTITLE13=Solitude
TTITLE14=Too Marvellous For Words
TTITLE15=Easy To Love
EXTD=
EXTT0=
EXTT1=
EXTT2=
EXTT3=
EXTT4=
EXTT5=
EXTT6=
EXTT7=
EXTT8=
EXTT9=
EXTT10=
EXTT11=
EXTT12=
EXTT13=
EXTT14=
EXTT15=
PLAYORDER=
